<svg width="221" height="47" viewBox="0 0 221 47" fill="none" xmlns="http://www.w3.org/2000/svg">
<path d="M0 43.2099C0 44.9145 1.40251 46.2963 3.13259 46.2963H15.6629C17.393 46.2963 18.7955 44.9145 18.7955 43.2099V3.08642C18.7955 1.38184 17.393 7.15256e-07 15.6629 7.15256e-07H3.13259C1.40251 7.15256e-07 0 1.38184 0 3.08642V43.2099Z" fill="#111827"/>
<path d="M56.3865 0.555556V46.4444H87.1172V38.8333H65.1828V27.2778H85.5384V19.7222H65.1828V8.16667H87.1172V0.555556H56.3865Z" fill="#111827"/>
<path d="M112.222 7.15256e-07C98.9148 7.15256e-07 91.8665 8.61111 91.8665 20.2222V26.8889C91.8665 38.4444 98.9148 47 112.278 47C124.401 47 131.168 39.7222 131.788 30.0556L131.901 27.4444H122.766L122.71 31.1111C122.372 35.5556 118.876 39.4444 112.278 39.4444C104.328 39.4444 100.888 34.1667 100.888 27.8889V19.1111C100.888 12.7222 104.328 7.55556 112.278 7.55556C118.988 7.55556 122.372 11.5 122.71 15.9444L122.766 19.6111H131.901L131.788 17C131.168 7.33333 124.458 7.15256e-07 112.222 7.15256e-07Z" fill="#111827"/>
<path d="M165.394 0.555556V19.7222H146.899V0.555556H138.103V46.4444H146.899V27.2778H165.394V46.4444H174.247V0.555556H165.394Z" fill="#111827"/>
<path d="M200.926 7.15256e-07C187.957 7.15256e-07 180.796 8.61111 180.796 20.2222V26.8889C180.796 38.4444 188.014 47 200.926 47C213.839 47 221 38.4444 221 26.8889V20.2222C221 8.61111 213.839 7.15256e-07 200.926 7.15256e-07ZM189.762 19.1111C189.762 12.8889 193.032 7.55556 200.926 7.55556C208.764 7.55556 212.035 12.8889 212.035 19.1111V27.9444C212.035 34.0556 208.764 39.4444 200.926 39.4444C193.032 39.4444 189.762 34.0556 189.762 27.9444V19.1111Z" fill="#111827"/>
</svg>
