<svg xmlns="http://www.w3.org/2000/svg" width="32" height="32" viewBox="0 0 32 32">
  <g fill="none">
    <circle cx="16" cy="16" r="16" fill="#2775CA"/>
    <path fill="#FFF" d="M20.022 18.124c0-2.12-1.28-2.852-3.84-3.156-1.828-.248-2.196-.756-2.196-1.636 0-.88.692-1.448 1.828-1.448 1.028 0 1.72.384 2.016 1.264a.522.522 0 00.504.356h1.152a.48.48 0 00.48-.508 3.388 3.388 0 00-3.024-2.836v-1.66c0-.288-.228-.508-.528-.556h-1.08c-.288 0-.508.228-.556.528v1.604c-1.956.36-3.18 1.66-3.18 3.212 0 1.976 1.24 2.804 3.8 3.108 1.72.304 2.236.692 2.236 1.692 0 1-.876 1.696-2.072 1.696-1.612 0-2.164-.692-2.36-1.612a.544.544 0 00-.508-.396h-1.2a.472.472 0 00-.48.508c.24 1.612 1.2 2.852 3.588 3.268v1.66c0 .288.228.508.528.556h1.08c.288 0 .508-.228.556-.528v-1.66c1.96-.416 3.256-1.776 3.256-3.404z"/>
    <path fill="#FFF" d="M12.724 24.756c-4.216-1.46-6.408-6.084-4.892-10.24 0.756-2.12 2.444-3.78 4.552-4.524a.396.396 0 00.276-.396v-1.048c0-.228-.148-.4-.36-.448-.056-.008-.14 0-.2.028-5.168 1.66-8.016 7.132-6.356 12.3 1.008 3.104 3.4 5.496 6.556 6.5a.404.404 0 00.524-.384v-1.048c0-.2-.148-.396-.3-.44zm6.792-19.128a.404.404 0 00-.524.384v1.048c0 .228.148.42.36.44 4.216 1.46 6.408 6.084 4.892 10.24a7.768 7.768 0 01-4.552 4.524.396.396 0 00-.276.396v1.048c0 .228.148.4.36.448.056.008.14 0 .2-.028 5.168-1.66 8.016-7.132 6.356-12.3a9.4 9.4 0 00-6.556-6.5l-.26.3z"/>
  </g>
</svg>
